<?xml version="1.0" encoding="utf-8" standalone="no"?>
<!DOCTYPE svg PUBLIC "-//W3C//DTD SVG 1.1//EN"
  "http://www.w3.org/Graphics/SVG/1.1/DTD/svg11.dtd">
<svg xmlns:xlink="http://www.w3.org/1999/xlink" width="777.6pt" height="561.6pt" viewBox="0 0 777.6 561.6" xmlns="http://www.w3.org/2000/svg" version="1.1">
 <metadata>
  <rdf:RDF xmlns:dc="http://purl.org/dc/elements/1.1/" xmlns:cc="http://creativecommons.org/ns#" xmlns:rdf="http://www.w3.org/1999/02/22-rdf-syntax-ns#">
   <cc:Work>
    <dc:type rdf:resource="http://purl.org/dc/dcmitype/StillImage"/>
    <dc:date>2026-09-23T13:10:39.011925</dc:date>
    <dc:format>image/svg+xml</dc:format>
    <dc:creator>
     <cc:Agent>
      <dc:title>Matplotlib v3.11.1, https://matplotlib.org/</dc:title>
     </cc:Agent>
    </dc:creator>
   </cc:Work>
  </rdf:RDF>
 </metadata>
 <defs>
  <style type="text/css">*{stroke-linejoin: round; stroke-linecap: butt}</style>
 </defs>
 <g id="figure_1">
  <g id="patch_1">
   <path d="M 0 561.6 
L 777.6 561.6 
L 777.6 0 
L 0 0 
z
" style="fill: #ffffff"/>
  </g>
  <g id="axes_1">
   <g id="patch_2">
    <path d="M 350.784 92.607047 
Q 350.784 86.832303 350.784 82.175592 
" clip-path="url(#p0fa594fc1d)" style="fill: none; stroke: #64748b; stroke-linecap: round"/>
    <path d="M 348.984 85.775592 
L 350.784 82.175592 
L 352.584 85.775592 
z
" clip-path="url(#p0fa594fc1d)" style="fill: #64748b; stroke: #64748b; stroke-linecap: round"/>
   </g>
   <g id="patch_3">
    <path d="M 498.797789 262.656 
Q 505.871611 262.656 511.827399 262.656 
" clip-path="url(#p0fa594fc1d)" style="fill: none; stroke: #64748b; stroke-linecap: round"/>
    <path d="M 508.227399 260.856 
L 511.827399 262.656 
L 508.227399 264.456 
z
" clip-path="url(#p0fa594fc1d)" style="fill: #64748b; stroke: #64748b; stroke-linecap: round"/>
   </g>
   <g id="patch_4">
    <path d="M 153.792 306.744577 
Q 153.792 245.809192 153.792 184.873807 
" clip-path="url(#p0fa594fc1d)" style="fill: none; stroke: #b62c69; stroke-width: 3.6; stroke-linecap: round"/>
    <path d="M 157.592 299.144577 
L 153.792 306.744577 
L 149.992 299.144577 
" clip-path="url(#p0fa594fc1d)" style="fill: none; stroke: #b62c69; stroke-width: 3.6; stroke-linecap: round"/>
    <path d="M 149.992 192.473807 
L 153.792 184.873807 
L 157.592 192.473807 
" clip-path="url(#p0fa594fc1d)" style="fill: none; stroke: #b62c69; stroke-width: 3.6; stroke-linecap: round"/>
   </g>
   <g id="line2d_1">
    <path d="M 251.856 100.656 
L 350.784 100.656 
" clip-path="url(#p0fa594fc1d)" style="fill: none; stroke: #9caabd; stroke-width: 0.8; stroke-linecap: square"/>
   </g>
   <g id="line2d_2">
    <path d="M 251.856 262.656 
L 347.328 262.656 
" clip-path="url(#p0fa594fc1d)" style="fill: none; stroke: #9caabd; stroke-width: 0.8; stroke-linecap: square"/>
   </g>
   <g id="patch_5">
    <path d="M 256.176 257.476305 
Q 256.176 181.657739 256.176 105.839174 
" clip-path="url(#p0fa594fc1d)" style="fill: none; stroke: #20354b; stroke-width: 1.3; stroke-linecap: round"/>
    <path d="M 258.176 253.476305 
L 256.176 257.476305 
L 254.176 253.476305 
" clip-path="url(#p0fa594fc1d)" style="fill: none; stroke: #20354b; stroke-width: 1.3; stroke-linecap: round"/>
    <path d="M 254.176 109.839174 
L 256.176 105.839174 
L 258.176 109.839174 
" clip-path="url(#p0fa594fc1d)" style="fill: none; stroke: #20354b; stroke-width: 1.3; stroke-linecap: round"/>
   </g>
   <g id="patch_6">
    <path d="M 355.965422 471.744 
Q 396.1435 471.744 436.321578 471.744 
" clip-path="url(#p0fa594fc1d)" style="fill: none; stroke: #20354b; stroke-width: 1.3; stroke-linecap: round"/>
    <path d="M 360.365422 473.944 
L 355.965422 471.744 
L 360.365422 469.544 
" clip-path="url(#p0fa594fc1d)" style="fill: none; stroke: #20354b; stroke-width: 1.3; stroke-linecap: round"/>
    <path d="M 431.921578 469.544 
L 436.321578 471.744 
L 431.921578 473.944 
" clip-path="url(#p0fa594fc1d)" style="fill: none; stroke: #20354b; stroke-width: 1.3; stroke-linecap: round"/>
   </g>
   <g id="patch_7">
    <path d="M 350.784 100.656 
C 366.250645 100.656 381.085898 117.725342 392.022467 148.104701 
C 402.959037 178.484061 409.104 219.693098 409.104 262.656 
C 409.104 305.618902 402.959037 346.827939 392.022467 377.207299 
C 381.085898 407.586658 366.250645 424.656 350.784 424.656 
C 335.317355 424.656 320.482102 407.586658 309.545533 377.207299 
C 298.608963 346.827939 292.464 305.618902 292.464 262.656 
C 292.464 219.693098 298.608963 178.484061 309.545533 148.104701 
C 320.482102 117.725342 335.317355 100.656 350.784 100.656 
z
" clip-path="url(#p0fa594fc1d)" style="fill: #edbd49; stroke: #a57816; stroke-width: 2; stroke-linejoin: miter"/>
   </g>
   <g id="line2d_3">
    <path d="M 520.992 221.184 
L 460.512 245.376 
" clip-path="url(#p0fa594fc1d)" style="fill: none; stroke: #236cbd; stroke-width: 1.1; stroke-linecap: square"/>
   </g>
   <g id="line2d_4">
    <path d="M 350.784 431.568 
L 350.784 478.656 
" clip-path="url(#p0fa594fc1d)" style="fill: none; stroke-dasharray: 3.6,3.6; stroke-dashoffset: 0; stroke: #9caabd; stroke-width: 0.9"/>
   </g>
   <g id="line2d_5">
    <path d="M 441.504 295.488 
L 441.504 478.656 
" clip-path="url(#p0fa594fc1d)" style="fill: none; stroke-dasharray: 3.6,3.6; stroke-dashoffset: 0; stroke: #9caabd; stroke-width: 0.9"/>
   </g>
   <g id="text_1">
    <text style="font-weight: 700; font-size: 22px; font-family: 'DejaVu Sans'; text-anchor: start; fill: #20354b" x="44.928" y="42.056984" transform="rotate(-0 44.928 42.056984)">Ведущий канал: side_long</text>
   </g>
   <g id="text_2">
    <text style="font-size: 13px; font-family: 'DejaVu Sans'; text-anchor: start; fill: #64748b" x="44.928" y="68.288164" transform="rotate(-0 44.928 68.288164)">КТ у экватора; поле параллельно большой оси сфероида</text>
   </g>
   <g id="patch_8">
    <path d="M 441.504 236.736 
C 448.378064 236.736 454.97151 239.467095 459.832208 244.327792 
C 464.692905 249.18849 467.424 255.781936 467.424 262.656 
C 467.424 269.530064 464.692905 276.12351 459.832208 280.984208 
C 454.97151 285.844905 448.378064 288.576 441.504 288.576 
C 434.629936 288.576 428.03649 285.844905 423.175792 280.984208 
C 418.315095 276.12351 415.584 269.530064 415.584 262.656 
C 415.584 255.781936 418.315095 249.18849 423.175792 244.327792 
C 428.03649 239.467095 434.629936 236.736 441.504 236.736 
z
" clip-path="url(#p0fa594fc1d)" style="fill: #dceefb; stroke: #236cbd; stroke-width: 2; stroke-linejoin: miter"/>
   </g>
   <g id="line2d_6">
    <path d="M 350.784 435.024 
L 350.784 88.56 
" clip-path="url(#p0fa594fc1d)" style="fill: none; stroke-dasharray: 3.2,3.2; stroke-dashoffset: 0; stroke: #9caabd; stroke-width: 0.8"/>
   </g>
   <g id="text_3">
    <text style="font-size: 13px; font-family: 'DejaVu Sans'; text-anchor: start; fill: #64748b" x="359.424" y="85.888953" transform="rotate(-0 359.424 85.888953)">z</text>
   </g>
   <g id="line2d_7">
    <path d="M 335.232 262.656 
L 504.576 262.656 
" clip-path="url(#p0fa594fc1d)" style="fill: none; stroke-dasharray: 3.2,3.2; stroke-dashoffset: 0; stroke: #9caabd; stroke-width: 0.8"/>
   </g>
   <g id="text_4">
    <text style="font-size: 13px; font-family: 'DejaVu Sans'; text-anchor: start; fill: #64748b" x="523.584" y="266.032953" transform="rotate(-0 523.584 266.032953)">x</text>
   </g>
   <g id="text_5">
    <text style="font-weight: 700; font-size: 17px; font-family: 'DejaVu Sans'; text-anchor: middle; fill: #20354b" x="350.784" y="194.496016" transform="rotate(-0 350.784 194.496016)">МНЧ</text>
   </g>
   <g id="text_6">
    <text style="font-size: 16px; font-family: 'DejaVu Sans'; text-anchor: middle; fill: #20354b" x="350.784" y="219.29225" transform="rotate(-0 350.784 219.29225)">Au</text>
   </g>
   <g id="text_7">
    <!-- $\mathbf{E}_0$ -->
    <g style="fill: #b62c69" transform="translate(94.239 245.822141)">
     <text>
      <tspan x="0" y="-0.78125" style="font-weight: 700; font-size: 25px; font-family: 'DejaVu Sans'; fill: #b62c69">E</tspan>
      <tspan x="17.316895" y="2.968738" style="font-size: 17.5px; font-family: 'DejaVu Sans'; fill: #b62c69">0</tspan>
     </text>
    </g>
   </g>
   <g id="text_8">
    <text style="font-size: 13px; font-family: 'DejaVu Sans'; text-anchor: middle; fill: #b62c69" x="153.792" y="342.064953" transform="rotate(-0 153.792 342.064953)">Поляризация</text>
   </g>
   <g id="text_9">
    <!-- $\mathbf{E}_0\parallel z$ -->
    <g style="fill: #b62c69" transform="translate(134.442 365.200242)">
     <text>
      <tspan x="0" y="-0.4375" style="font-weight: 700; font-size: 15px; font-family: 'DejaVu Sans'; fill: #b62c69">E</tspan>
      <tspan x="10.390137" y="1.812493" style="font-size: 10.5px; font-family: 'DejaVu Sans'; fill: #b62c69">0</tspan>
      <tspan x="20.403076" y="-0.4375" style="font-size: 15px; font-family: 'DejaVu Sans'; fill: #b62c69">∥</tspan>
      <tspan x="30.825439" y="-0.4375" style="font-style: oblique; font-size: 15px; font-family: 'DejaVu Sans'; fill: #b62c69">z</tspan>
     </text>
    </g>
   </g>
   <g id="text_10">
    <!-- $c=12{,}5$ нм -->
    <g style="fill: #20354b" transform="translate(246.592953 218.901) rotate(-90)">
     <text>
      <tspan x="0" y="-0.34375" style="font-style: oblique; font-size: 13px; font-family: 'DejaVu Sans'; fill: #20354b">c</tspan>
      <tspan x="9.680176" y="-0.34375" style="font-size: 13px; font-family: 'DejaVu Sans'; fill: #20354b">=</tspan>
      <tspan x="23.105469" y="-0.34375" style="font-size: 13px; font-family: 'DejaVu Sans'; fill: #20354b">1</tspan>
      <tspan x="31.376465" y="-0.34375" style="font-size: 13px; font-family: 'DejaVu Sans'; fill: #20354b">2</tspan>
      <tspan x="39.647461" y="-0.34375" style="font-size: 13px; font-family: 'DejaVu Sans'; fill: #20354b">,</tspan>
      <tspan x="43.779785" y="-0.34375" style="font-size: 13px; font-family: 'DejaVu Sans'; fill: #20354b">5</tspan>
      <tspan x="52.050781" y="-0.34375" style="font-size: 13px; font-family: 'DejaVu Sans'; fill: #20354b"> </tspan>
      <tspan x="56.183105" y="-0.34375" style="font-size: 13px; font-family: 'DejaVu Sans'; fill: #20354b">н</tspan>
      <tspan x="64.682617" y="-0.34375" style="font-size: 13px; font-family: 'DejaVu Sans'; fill: #20354b">м</tspan>
     </text>
    </g>
   </g>
   <g id="text_11">
    <text style="font-weight: 700; font-size: 17px; font-family: 'DejaVu Sans'; text-anchor: start; fill: #236cbd" x="527.04" y="215.232016" transform="rotate(-0 527.04 215.232016)">КТ</text>
   </g>
   <g id="text_12">
    <!-- $r_{\mathrm{QD}}=2$ нм -->
    <g style="fill: #236cbd" transform="translate(527.04 238.321477)">
     <text>
      <tspan x="0" y="-0.34375" style="font-style: oblique; font-size: 13px; font-family: 'DejaVu Sans'; fill: #236cbd">r</tspan>
      <tspan x="5.344727" y="1.606244" style="font-size: 9.1px; font-family: 'DejaVu Sans'; fill: #236cbd">Q</tspan>
      <tspan x="12.507422" y="1.606244" style="font-size: 9.1px; font-family: 'DejaVu Sans'; fill: #236cbd">D</tspan>
      <tspan x="22.402783" y="-0.34375" style="font-size: 13px; font-family: 'DejaVu Sans'; fill: #236cbd">=</tspan>
      <tspan x="35.828076" y="-0.34375" style="font-size: 13px; font-family: 'DejaVu Sans'; fill: #236cbd">2</tspan>
      <tspan x="44.099072" y="-0.34375" style="font-size: 13px; font-family: 'DejaVu Sans'; fill: #236cbd"> </tspan>
      <tspan x="48.231396" y="-0.34375" style="font-size: 13px; font-family: 'DejaVu Sans'; fill: #236cbd">н</tspan>
      <tspan x="56.730908" y="-0.34375" style="font-size: 13px; font-family: 'DejaVu Sans'; fill: #236cbd">м</tspan>
     </text>
    </g>
   </g>
   <g id="text_13">
    <!-- $g=0{,}5$ нм -->
    <g style="fill: #b62c69" transform="translate(483.84 154.836719)">
     <text>
      <tspan x="0" y="-0.609375" style="font-style: oblique; font-size: 14px; font-family: 'DejaVu Sans'; fill: #b62c69">g</tspan>
      <tspan x="11.614258" y="-0.609375" style="font-size: 14px; font-family: 'DejaVu Sans'; fill: #b62c69">=</tspan>
      <tspan x="26.072266" y="-0.609375" style="font-size: 14px; font-family: 'DejaVu Sans'; fill: #b62c69">0</tspan>
      <tspan x="34.979492" y="-0.609375" style="font-size: 14px; font-family: 'DejaVu Sans'; fill: #b62c69">,</tspan>
      <tspan x="39.429688" y="-0.609375" style="font-size: 14px; font-family: 'DejaVu Sans'; fill: #b62c69">5</tspan>
      <tspan x="48.336914" y="-0.609375" style="font-size: 14px; font-family: 'DejaVu Sans'; fill: #b62c69"> </tspan>
      <tspan x="52.787109" y="-0.609375" style="font-size: 14px; font-family: 'DejaVu Sans'; fill: #b62c69">н</tspan>
      <tspan x="61.94043" y="-0.609375" style="font-size: 14px; font-family: 'DejaVu Sans'; fill: #b62c69">м</tspan>
     </text>
    </g>
   </g>
   <g id="text_14">
    <text style="font-size: 11px; font-family: 'DejaVu Sans'; text-anchor: start; fill: #64748b" x="483.84" y="174.793422" transform="rotate(-0 483.84 174.793422)">Зазор между поверхностями</text>
   </g>
   <g id="text_15">
    <!-- $R=a+r_{\mathrm{QD}}+g=7$ нм -->
    <g style="fill: #20354b" transform="translate(320.894 500.368359)">
     <text>
      <tspan x="0" y="-0.796875" style="font-style: oblique; font-size: 14px; font-family: 'DejaVu Sans'; fill: #20354b">R</tspan>
      <tspan x="26.913086" y="-0.796875" style="font-style: oblique; font-size: 14px; font-family: 'DejaVu Sans'; fill: #20354b">a</tspan>
      <tspan x="52.677734" y="-0.796875" style="font-style: oblique; font-size: 14px; font-family: 'DejaVu Sans'; fill: #20354b">r</tspan>
      <tspan x="91.261816" y="-0.796875" style="font-style: oblique; font-size: 14px; font-family: 'DejaVu Sans'; fill: #20354b">g</tspan>
      <tspan x="12.455078" y="-0.796875" style="font-size: 14px; font-family: 'DejaVu Sans'; fill: #20354b">=</tspan>
      <tspan x="38.219727" y="-0.796875" style="font-size: 14px; font-family: 'DejaVu Sans'; fill: #20354b">+</tspan>
      <tspan x="76.803809" y="-0.796875" style="font-size: 14px; font-family: 'DejaVu Sans'; fill: #20354b">+</tspan>
      <tspan x="102.876074" y="-0.796875" style="font-size: 14px; font-family: 'DejaVu Sans'; fill: #20354b">=</tspan>
      <tspan x="117.334082" y="-0.796875" style="font-size: 14px; font-family: 'DejaVu Sans'; fill: #20354b">7</tspan>
      <tspan x="126.241309" y="-0.796875" style="font-size: 14px; font-family: 'DejaVu Sans'; fill: #20354b"> </tspan>
      <tspan x="130.691504" y="-0.796875" style="font-size: 14px; font-family: 'DejaVu Sans'; fill: #20354b">н</tspan>
      <tspan x="139.844824" y="-0.796875" style="font-size: 14px; font-family: 'DejaVu Sans'; fill: #20354b">м</tspan>
      <tspan x="58.433594" y="1.303118" style="font-size: 9.8px; font-family: 'DejaVu Sans'; fill: #20354b">Q</tspan>
      <tspan x="66.147266" y="1.303118" style="font-size: 9.8px; font-family: 'DejaVu Sans'; fill: #20354b">D</tspan>
     </text>
    </g>
   </g>
   <g id="text_16">
    <!-- $\mathbf{E}_0\perp\mathbf{R}$ -->
    <g style="fill: #b62c69" transform="translate(545.184 345.871078)">
     <text>
      <tspan x="0" y="-0.6875" style="font-weight: 700; font-size: 21px; font-family: 'DejaVu Sans'; fill: #b62c69">E</tspan>
      <tspan x="47.208548" y="-0.6875" style="font-weight: 700; font-size: 21px; font-family: 'DejaVu Sans'; fill: #b62c69">R</tspan>
      <tspan x="14.546191" y="2.46249" style="font-size: 14.7px; font-family: 'DejaVu Sans'; fill: #b62c69">0</tspan>
      <tspan x="28.564307" y="-0.6875" style="font-size: 21px; font-family: 'STIXGeneral'; fill: #b62c69">⟂</tspan>
     </text>
    </g>
   </g>
   <g id="text_17">
    <text style="font-size: 12px; font-family: 'DejaVu Sans'; text-anchor: start; fill: #64748b" x="545.184" y="374.637187" transform="rotate(-0 545.184 374.637187)">Поле касательно</text>
   </g>
   <g id="text_18">
    <text style="font-size: 12px; font-family: 'DejaVu Sans'; text-anchor: start; fill: #64748b" x="545.184" y="392.883844" transform="rotate(-0 545.184 392.883844)">боковой поверхности МНЧ</text>
   </g>
   <g id="text_19">
    <text style="font-size: 11px; font-family: 'DejaVu Sans'; text-anchor: start; fill: #64748b" x="44.928" y="540.359523" transform="rotate(-0 44.928 540.359523)">Сечение xz в масштабе.  Полуось b = a направлена перпендикулярно рисунку.</text>
   </g>
   <g id="patch_9">
    <path d="M 355.852775 284.256 
Q 379.944929 284.256 404.037084 284.256 
" clip-path="url(#p0fa594fc1d)" style="fill: none; stroke: #20354b; stroke-width: 1.2; stroke-linecap: round"/>
    <path d="M 359.452775 286.056 
L 355.852775 284.256 
L 359.452775 282.456 
" clip-path="url(#p0fa594fc1d)" style="fill: none; stroke: #20354b; stroke-width: 1.2; stroke-linecap: round"/>
    <path d="M 400.437084 282.456 
L 404.037084 284.256 
L 400.437084 286.056 
" clip-path="url(#p0fa594fc1d)" style="fill: none; stroke: #20354b; stroke-width: 1.2; stroke-linecap: round"/>
   </g>
   <g id="line2d_8">
    <path d="M 409.104 266.112 
L 409.104 287.712 
" clip-path="url(#p0fa594fc1d)" style="fill: none; stroke: #20354b; stroke-width: 0.65; stroke-linecap: square"/>
   </g>
   <g id="line2d_9">
    <path d="M 412.344 259.2 
L 412.344 153.792 
L 475.2 153.792 
" clip-path="url(#p0fa594fc1d)" style="fill: none; stroke: #b62c69; stroke-linecap: square"/>
   </g>
   <g id="PathCollection_1">
    <defs>
     <path id="C0_0_1319839681" d="M 0 2.061553 
C 0.54673 2.061553 1.071141 1.844335 1.457738 1.457738 
C 1.844335 1.071141 2.061553 0.54673 2.061553 -0 
C 2.061553 -0.54673 1.844335 -1.071141 1.457738 -1.457738 
C 1.071141 -1.844335 0.54673 -2.061553 0 -2.061553 
C -0.54673 -2.061553 -1.071141 -1.844335 -1.457738 -1.457738 
C -1.844335 -1.071141 -2.061553 -0.54673 -2.061553 0 
C -2.061553 0.54673 -1.844335 1.071141 -1.457738 1.457738 
C -1.071141 1.844335 -0.54673 2.061553 0 2.061553 
z
"/>
    </defs>
    <g clip-path="url(#p0fa594fc1d)">
     <use xlink:href="#C0_0_1319839681" x="350.784" y="262.656" style="fill: #20354b; stroke: #20354b"/>
    </g>
    <g clip-path="url(#p0fa594fc1d)">
     <use xlink:href="#C0_0_1319839681" x="441.504" y="262.656" style="fill: #236cbd; stroke: #236cbd"/>
    </g>
   </g>
   <g id="text_20">
    <!-- $a=4{,}5$ нм -->
    <g style="fill: #20354b" transform="translate(351.564 306.985422)">
     <text>
      <tspan x="0" y="-0.984375" style="font-style: oblique; font-size: 11px; font-family: 'DejaVu Sans'; fill: #20354b">a</tspan>
      <tspan x="8.883789" y="-0.984375" style="font-size: 11px; font-family: 'DejaVu Sans'; fill: #20354b">=</tspan>
      <tspan x="20.243652" y="-0.984375" style="font-size: 11px; font-family: 'DejaVu Sans'; fill: #20354b">4</tspan>
      <tspan x="27.242188" y="-0.984375" style="font-size: 11px; font-family: 'DejaVu Sans'; fill: #20354b">,</tspan>
      <tspan x="30.73877" y="-0.984375" style="font-size: 11px; font-family: 'DejaVu Sans'; fill: #20354b">5</tspan>
      <tspan x="37.737305" y="-0.984375" style="font-size: 11px; font-family: 'DejaVu Sans'; fill: #20354b"> </tspan>
      <tspan x="41.233887" y="-0.984375" style="font-size: 11px; font-family: 'DejaVu Sans'; fill: #20354b">н</tspan>
      <tspan x="48.425781" y="-0.984375" style="font-size: 11px; font-family: 'DejaVu Sans'; fill: #20354b">м</tspan>
     </text>
    </g>
   </g>
   <g id="line2d_10">
    <path d="M 409.104 262.656 
L 415.584 262.656 
" clip-path="url(#p0fa594fc1d)" style="fill: none; stroke: #b62c69; stroke-width: 2.5; stroke-linecap: square"/>
   </g>
  </g>
 </g>
 <defs>
  <clipPath id="p0fa594fc1d">
   <rect x="0" y="0" width="777.6" height="561.6"/>
  </clipPath>
 </defs>
</svg>
